# xmcd
#
# Track frame offsets: 
#        150
#        11929
#        27537
#        41895
#        60516
#        74172
#        92848
#        116045
#        130915
#        144359
#        164775
#
# Disc length: 2417 seconds
#
# Revision: 0
# Processed by: cddbd v1.4PL0 Copyright (c) Steve Scherf et al.
# Submitted via: ExactAudioCopy v0.95a3
#
DISCID=ac096f0b
DTITLE=Patrick Sweany Band - henryfordbedroom
DYEAR=2003
DGENRE=Blues
TTITLE0=I'll take care of you
TTITLE1=Pecan Trees
TTITLE2=Gemini Blues
TTITLE3=Smokestacks
TTITLE4=More Better
TTITLE5=Rain in the Delta
TTITLE6=Calm Me Down
TTITLE7=Wastin' Time
TTITLE8=Bad Luck, Bad Luck
TTITLE9='01 Blues
TTITLE10=Evening Sun
EXTD=
EXTT0=
EXTT1=
EXTT2=
EXTT3=
EXTT4=
EXTT5=
EXTT6=
EXTT7=
EXTT8=
EXTT9=
EXTT10=
PLAYORDER=
